<svg width="211" height="48" viewBox="0 0 211 48" fill="none" xmlns="http://www.w3.org/2000/svg">
<g clip-path="url(#clip0_5_139)">
<path d="M21.8183 25.0909C18.8059 25.0909 16.3638 22.1604 16.3638 18.5455C16.3638 14.9305 18.8059 12 21.8183 12C24.8308 12 27.2729 14.9305 27.2729 18.5455C27.2729 22.1604 24.8308 25.0909 21.8183 25.0909Z" fill="#0A3624"/>
<path fill-rule="evenodd" clip-rule="evenodd" d="M19.6044 0C9.36205 0 1.05896 8.30309 1.05896 18.5455C1.05896 28.7878 9.36205 37.0909 19.6044 37.0909C29.8468 37.0909 38.1499 28.7878 38.1499 18.5455C38.1499 8.30309 29.8468 0 19.6044 0ZM7.60442 18.5455C7.60442 11.918 12.977 6.54546 19.6044 6.54546C26.2318 6.54546 31.6044 11.918 31.6044 18.5455C31.6044 25.1729 26.2318 30.5455 19.6044 30.5455C12.977 30.5455 7.60442 25.1729 7.60442 18.5455Z" fill="#0A3624"/>
<path d="M38.5517 36.9084C39.6836 38.3176 39.4588 40.3775 38.0496 41.5094C35.8762 43.2552 33.4616 44.687 30.8761 45.7579C27.3025 47.2381 23.4724 48 19.6044 48C15.7363 48 11.9062 47.2381 8.3326 45.7579C5.77573 44.6988 3.38603 43.2868 1.23141 41.5673C-0.181322 40.4398 -0.412588 38.3806 0.714867 36.9679C1.84232 35.5551 3.90155 35.3239 5.31429 36.4513C6.99012 37.7887 8.84877 38.887 10.8374 39.7107C13.6169 40.862 16.5959 41.4545 19.6044 41.4545C22.6128 41.4545 25.5918 40.862 28.3713 39.7107C30.3822 38.8777 32.2602 37.7641 33.9507 36.4063C35.3599 35.2744 37.4198 35.4992 38.5517 36.9084Z" fill="#0A3624"/>
<path d="M73.822 21.8018H63.1431V27.7582H65.9511C65.9511 29.46 65.398 31.8426 63.2708 31.8426C60.3757 31.8426 60.3771 26.9599 60.3776 24.9071L60.3777 24.8226C60.3777 22.6527 60.3777 16.1433 63.526 16.1433C65.0151 16.1433 65.6533 17.8026 65.7809 19.0364L73.2264 16.3135C71.3969 12.1015 68.2486 9.29347 63.4835 9.29347C55.2297 9.29347 52.5493 17.1644 52.5493 24.1418C52.5493 31.1618 55.2722 38.6924 63.4835 38.6924C67.0573 38.6924 70.2482 37.0331 71.95 33.7997C73.6093 30.6087 73.822 26.4818 73.822 22.9506V21.8018Z" fill="#0A3624"/>
<path fill-rule="evenodd" clip-rule="evenodd" d="M96.6507 23.7164C96.6507 17.1218 93.715 9.29347 85.9718 9.29347C78.1859 9.29347 75.0801 17.0367 75.0801 23.7164C75.0801 27.4604 75.8034 31.9277 78.271 34.9058C80.1856 37.2033 82.9936 38.6924 86.0143 38.6924C93.9703 38.6924 96.6507 30.3535 96.6507 23.7164ZM88.6947 24.0142C88.6947 25.8437 88.4819 31.5022 85.8441 31.5022C83.2063 31.5022 83.0361 25.8011 83.0361 23.9717C83.0361 22.1422 83.2914 16.4411 85.9292 16.4411C88.567 16.4411 88.6947 22.1847 88.6947 24.0142Z" fill="#0A3624"/>
<path fill-rule="evenodd" clip-rule="evenodd" d="M119.514 23.7164C119.514 17.1218 116.578 9.29347 108.835 9.29347C101.049 9.29347 97.9433 17.0367 97.9433 23.7164C97.9433 27.4604 98.6666 31.9277 101.134 34.9058C103.049 37.2033 105.857 38.6924 108.878 38.6924C116.834 38.6924 119.514 30.3535 119.514 23.7164ZM111.558 24.0142C111.558 25.8437 111.345 31.5022 108.707 31.5022C106.07 31.5022 105.899 25.8011 105.899 23.9717C105.899 22.1422 106.155 16.4411 108.792 16.4411C111.43 16.4411 111.558 22.1847 111.558 24.0142Z" fill="#0A3624"/>
<path fill-rule="evenodd" clip-rule="evenodd" d="M121.53 9.80401V38.1818H128.677C133.272 38.1818 136.804 36.948 139.144 32.736C140.633 30.0982 141.101 27.0349 141.101 24.0142C141.101 15.8029 136.804 9.80401 128.124 9.80401H121.53ZM129.188 16.9091C132.719 16.9091 133.272 21.5891 133.272 24.2269C133.272 26.9924 132.762 31.2044 129.188 31.332V16.9091Z" fill="#0A3624"/>
<path fill-rule="evenodd" clip-rule="evenodd" d="M143.105 9.80401V38.1818H153.826C158.719 38.1818 162.378 35.076 162.378 30.0557C162.378 26.184 160.336 24.0993 156.549 23.6313C159.996 23.3335 161.825 21.2913 161.825 17.8451C161.825 15.0797 160.506 12.4844 158.081 11.0804C156.252 10.0167 154.082 9.80401 151.997 9.80401H143.105ZM150.763 15.9731C151.018 15.9306 151.274 15.9306 151.529 15.9306C153.103 15.9306 154.252 16.6964 154.252 18.3982C154.252 20.1426 152.805 20.8658 151.231 20.8658C151.061 20.8658 150.933 20.8658 150.763 20.8233V15.9731ZM150.763 26.6095C150.87 26.6095 150.965 26.5988 151.061 26.5882C151.157 26.5776 151.252 26.5669 151.359 26.5669C153.103 26.5669 154.55 27.3753 154.55 29.2898C154.55 31.1618 153.146 32.0553 151.401 32.0553C151.189 32.0553 150.976 32.0553 150.763 32.0128V26.6095Z" fill="#0A3624"/>
<path d="M172.048 38.1818V9.80401H164.389V38.1818H172.048Z" fill="#0A3624"/>
<path fill-rule="evenodd" clip-rule="evenodd" d="M174.747 9.80401V38.1818H181.894C186.489 38.1818 190.02 36.948 192.36 32.736C193.849 30.0982 194.317 27.0349 194.317 24.0142C194.317 15.8029 190.02 9.80401 181.341 9.80401H174.747ZM182.405 16.9091C185.936 16.9091 186.489 21.5891 186.489 24.2269C186.489 26.9924 185.979 31.2044 182.405 31.332V16.9091Z" fill="#0A3624"/>
<path d="M209.724 10.74C208.022 9.84656 206.15 9.29347 204.235 9.29347C199.13 9.29347 195.598 13.6757 195.598 18.6109C195.598 22.9735 198.261 25.0493 200.355 26.6821C201.713 27.7403 202.831 28.6124 202.831 29.8004C202.831 31.0342 201.682 31.6724 200.576 31.6724C198.534 31.6724 196.875 30.1408 195.726 28.5666V37.4586C197.556 38.2244 199.513 38.6924 201.512 38.6924C206.958 38.6924 210.532 34.3528 210.532 29.0771C210.532 24.5219 207.761 22.4797 205.63 20.9085C204.297 19.9263 203.214 19.1282 203.214 18.0153C203.214 16.9517 204.235 16.3135 205.214 16.3135C207.128 16.3135 208.745 17.9302 209.724 19.4193V10.74Z" fill="#0A3624"/>
</g>
<defs>
<clipPath id="clip0_5_139">
<rect width="210.532" height="48" fill="white"/>
</clipPath>
</defs>
</svg>
